# xmcd CD database file
# Copyright (C) 1993-1996 Ti Kan
#
# Track frame offsets:
# 150
# 7400
# 14295
# 23147
# 35267
# 51590
# 61472
# 71625
# 80707
# 95095
# 104037
# 118490
# 128917
# 143035
# 159587
# 172457
# 178362
# 190160
# 203797
# 213015
# 227582
# 237405
# 251412
# 267757
# 285670
# 302565
# 322522
#
# Disc length: 4539 seconds
#
# Revision: 0
# Processed by: cddbd v1.4b41PL1 Copyright (c) Steve Scherf et al.
# Submitted via: inCDius 1.1b5
#
DISCID=9511b91b
DTITLE=George Hamilton  4th - To You And Yours,From Me And Mine Disc 1
DYEAR=1900
DGENRE=
TTITLE0=Beer, Wine And Whiskey
TTITLE1=Sleeping At The Foot Of The Bed
TTITLE2=Caribbean
TTITLE3=Satisfaction Guaranteed
TTITLE4=A Satisfied Mind
TTITLE5=Out Behind The Barn
TTITLE6=Serenaders Swing
TTITLE7=It's My Way
TTITLE8=I'll Always RememberYou
TTITLE9=Jalopy Jane
TTITLE10=Driftin' 
TTITLE11=Daniel Boone
TTITLE12=Driftin'
TTITLE13=Chat
TTITLE14=I've Got A Secret
TTITLE15=The Verdict
TTITLE16=I've Got A Secret
TTITLE17=Chat
TTITLE18=Sam 
TTITLE19=Chat
TTITLE20=Jamaica Farewell
TTITLE21=He's Movin' On
TTITLE22=A Rose And A Baby Ruth
TTITLE23=I've Got A Secret
TTITLE24=It Was Me
TTITLE25=If You Don't Know, I Ain't Gonna Tell You
TTITLE26=Everybody'sBody
EXTD=
EXTT0=
EXTT1=
EXTT2=
EXTT3=
EXTT4=
EXTT5=
EXTT6=
EXTT7=
EXTT8=
EXTT9=
EXTT10=
EXTT11=
EXTT12=
EXTT13=
EXTT14=
EXTT15=
EXTT16=
EXTT17=
EXTT18=
EXTT19=
EXTT20=
EXTT21=
EXTT22=
EXTT23=
EXTT24=
EXTT25=
EXTT26=
PLAYORDER=
